<svg xmlns="http://www.w3.org/2000/svg" width="1280" height="720" viewBox="0 0 1280 720">
  <rect width="1280" height="720" fill="#F4F5F7"/>
  <rect x="0" y="0" width="1280" height="76" fill="#172B4D"/>
  <text x="36" y="48" font-family="Segoe UI, Arial" font-size="30" font-weight="700" fill="#FFFFFF">Agile Project Tracking Dashboard</text>
  <text x="930" y="46" font-family="Segoe UI, Arial" font-size="18" fill="#B3D4FF">Executive Overview</text>
  <g font-family="Segoe UI, Arial">
    <rect x="36" y="104" width="182" height="104" rx="8" fill="#FFFFFF"/><text x="56" y="139" font-size="15" fill="#5E6C84">Total Tasks</text><text x="56" y="181" font-size="38" font-weight="700" fill="#0052CC">620</text>
    <rect x="238" y="104" width="182" height="104" rx="8" fill="#FFFFFF"/><text x="258" y="139" font-size="15" fill="#5E6C84">Completed</text><text x="258" y="181" font-size="38" font-weight="700" fill="#36B37E">450</text>
    <rect x="440" y="104" width="182" height="104" rx="8" fill="#FFFFFF"/><text x="460" y="139" font-size="15" fill="#5E6C84">Pending</text><text x="460" y="181" font-size="38" font-weight="700" fill="#FFAB00">170</text>
    <rect x="642" y="104" width="182" height="104" rx="8" fill="#FFFFFF"/><text x="662" y="139" font-size="15" fill="#5E6C84">Sprint Completion</text><text x="662" y="181" font-size="38" font-weight="700" fill="#0052CC">72.6%</text>
    <rect x="844" y="104" width="182" height="104" rx="8" fill="#FFFFFF"/><text x="864" y="139" font-size="15" fill="#5E6C84">Avg Cycle Time</text><text x="864" y="181" font-size="38" font-weight="700" fill="#172B4D">6.9d</text>
    <rect x="1046" y="104" width="198" height="104" rx="8" fill="#FFFFFF"/><text x="1066" y="139" font-size="15" fill="#5E6C84">Team Utilization</text><text x="1066" y="181" font-size="38" font-weight="700" fill="#00B8D9">99%</text>
    <rect x="36" y="244" width="374" height="396" rx="8" fill="#FFFFFF"/><text x="60" y="285" font-size="20" font-weight="700" fill="#172B4D">Task Status Distribution</text>
    <circle cx="223" cy="444" r="105" fill="none" stroke="#0052CC" stroke-width="48" stroke-dasharray="165 495" transform="rotate(-90 223 444)"/>
    <circle cx="223" cy="444" r="105" fill="none" stroke="#36B37E" stroke-width="48" stroke-dasharray="205 455" stroke-dashoffset="-165" transform="rotate(-90 223 444)"/>
    <circle cx="223" cy="444" r="105" fill="none" stroke="#FFAB00" stroke-width="48" stroke-dasharray="140 520" stroke-dashoffset="-370" transform="rotate(-90 223 444)"/>
    <circle cx="223" cy="444" r="105" fill="none" stroke="#DE350B" stroke-width="48" stroke-dasharray="150 510" stroke-dashoffset="-510" transform="rotate(-90 223 444)"/>
    <text x="179" y="452" font-size="28" font-weight="700" fill="#172B4D">620</text>
    <rect x="444" y="244" width="380" height="396" rx="8" fill="#FFFFFF"/><text x="468" y="285" font-size="20" font-weight="700" fill="#172B4D">Tasks by Priority</text>
    <rect x="500" y="540" width="58" height="52" fill="#C1C7D0"/><rect x="590" y="420" width="58" height="172" fill="#0052CC"/><rect x="680" y="470" width="58" height="122" fill="#FFAB00"/><rect x="770" y="525" width="58" height="67" fill="#DE350B"/>
    <line x1="480" y1="592" x2="805" y2="592" stroke="#C1C7D0"/><text x="498" y="620" font-size="14" fill="#5E6C84">Low</text><text x="584" y="620" font-size="14" fill="#5E6C84">Medium</text><text x="680" y="620" font-size="14" fill="#5E6C84">High</text><text x="758" y="620" font-size="14" fill="#5E6C84">Critical</text>
    <rect x="858" y="244" width="386" height="396" rx="8" fill="#FFFFFF"/><text x="882" y="285" font-size="20" font-weight="700" fill="#172B4D">Completed Tasks by Sprint</text>
    <polyline points="900,560 930,530 960,500 990,522 1020,455 1050,480 1080,430 1110,395 1140,420 1170,370 1200,360" fill="none" stroke="#0052CC" stroke-width="5"/>
    <line x1="898" y1="590" x2="1208" y2="590" stroke="#C1C7D0"/><line x1="898" y1="320" x2="898" y2="590" stroke="#C1C7D0"/>
  </g>
</svg>
