<svg xmlns="http://www.w3.org/2000/svg" width="1280" height="720" viewBox="0 0 1280 720">
  <rect width="1280" height="720" fill="#F4F5F7"/><rect width="1280" height="76" fill="#172B4D"/>
  <text x="36" y="48" font-family="Segoe UI, Arial" font-size="30" font-weight="700" fill="#FFFFFF">Project Health</text>
  <text x="940" y="46" font-family="Segoe UI, Arial" font-size="18" fill="#B3D4FF">Risk Monitoring | Bottleneck Analysis</text>
  <g font-family="Segoe UI, Arial">
    <rect x="36" y="104" width="270" height="104" rx="8" fill="#FFFFFF"/><text x="56" y="139" font-size="15" fill="#5E6C84">Overdue Tasks</text><text x="56" y="181" font-size="38" font-weight="700" fill="#DE350B">354</text>
    <rect x="326" y="104" width="270" height="104" rx="8" fill="#FFFFFF"/><text x="346" y="139" font-size="15" fill="#5E6C84">High-Risk Tasks</text><text x="346" y="181" font-size="38" font-weight="700" fill="#FFAB00">119</text>
    <rect x="616" y="104" width="270" height="104" rx="8" fill="#FFFFFF"/><text x="636" y="139" font-size="15" fill="#5E6C84">Testing Bottleneck</text><text x="636" y="181" font-size="38" font-weight="700" fill="#0052CC">68</text>
    <rect x="906" y="104" width="338" height="104" rx="8" fill="#FFFFFF"/><text x="926" y="139" font-size="15" fill="#5E6C84">Delivery Variance</text><text x="926" y="181" font-size="38" font-weight="700" fill="#172B4D">+9.8%</text>
    <rect x="36" y="244" width="570" height="396" rx="8" fill="#FFFFFF"/><text x="60" y="285" font-size="20" font-weight="700" fill="#172B4D">Delay Reasons</text>
    <g fill="#DE350B"><rect x="265" y="330" width="245" height="24"/><rect x="265" y="375" width="205" height="24"/><rect x="265" y="420" width="185" height="24"/><rect x="265" y="465" width="146" height="24"/><rect x="265" y="510" width="112" height="24"/></g>
    <g font-size="15" fill="#172B4D"><text x="70" y="348">Dependency Blocker</text><text x="70" y="393">Requirement Change</text><text x="70" y="438">Resource Constraint</text><text x="70" y="483">Scope Clarification</text><text x="70" y="528">Environment Issue</text></g>
    <rect x="638" y="244" width="606" height="396" rx="8" fill="#FFFFFF"/><text x="662" y="285" font-size="20" font-weight="700" fill="#172B4D">Workflow Bottleneck by Status</text>
    <rect x="705" y="330" width="150" height="46" rx="4" fill="#C1C7D0"/><text x="720" y="360" font-size="16" fill="#172B4D">To Do</text><text x="812" y="360" font-size="16" fill="#172B4D">39</text>
    <rect x="705" y="400" width="240" height="46" rx="4" fill="#0052CC"/><text x="720" y="430" font-size="16" fill="#FFFFFF">In Progress</text><text x="900" y="430" font-size="16" fill="#FFFFFF">63</text>
    <rect x="705" y="470" width="260" height="46" rx="4" fill="#FFAB00"/><text x="720" y="500" font-size="16" fill="#172B4D">Testing</text><text x="920" y="500" font-size="16" fill="#172B4D">68</text>
    <rect x="705" y="540" width="520" height="46" rx="4" fill="#36B37E"/><text x="720" y="570" font-size="16" fill="#FFFFFF">Done</text><text x="1176" y="570" font-size="16" fill="#FFFFFF">450</text>
  </g>
</svg>
