<svg xmlns="http://www.w3.org/2000/svg" width="1280" height="720" viewBox="0 0 1280 720">
  <rect width="1280" height="720" fill="#F4F5F7"/><rect width="1280" height="76" fill="#172B4D"/>
  <text x="36" y="48" font-family="Segoe UI, Arial" font-size="30" font-weight="700" fill="#FFFFFF">Sprint Analysis</text>
  <text x="970" y="46" font-family="Segoe UI, Arial" font-size="18" fill="#B3D4FF">Sprint Planning | Backlog Tracking</text>
  <g font-family="Segoe UI, Arial">
    <rect x="36" y="104" width="568" height="250" rx="8" fill="#FFFFFF"/><text x="60" y="142" font-size="20" font-weight="700" fill="#172B4D">Planned vs Completed Story Points</text>
    <line x1="80" y1="304" x2="560" y2="304" stroke="#C1C7D0"/>
    <g fill="#0052CC"><rect x="96" y="190" width="18" height="114"/><rect x="166" y="170" width="18" height="134"/><rect x="236" y="150" width="18" height="154"/><rect x="306" y="168" width="18" height="136"/><rect x="376" y="135" width="18" height="169"/><rect x="446" y="160" width="18" height="144"/></g>
    <g fill="#36B37E"><rect x="118" y="230" width="18" height="74"/><rect x="188" y="210" width="18" height="94"/><rect x="258" y="185" width="18" height="119"/><rect x="328" y="215" width="18" height="89"/><rect x="398" y="175" width="18" height="129"/><rect x="468" y="205" width="18" height="99"/></g>
    <rect x="636" y="104" width="608" height="250" rx="8" fill="#FFFFFF"/><text x="660" y="142" font-size="20" font-weight="700" fill="#172B4D">Burndown Style Trend</text>
    <polyline points="690,180 740,205 790,230 840,260 890,285 940,308 990,320 1040,326 1090,335 1140,340 1190,345" fill="none" stroke="#DE350B" stroke-width="5"/>
    <polyline points="690,180 740,195 790,210 840,226 890,242 940,258 990,274 1040,290 1090,306 1140,322 1190,338" fill="none" stroke="#36B37E" stroke-width="3" stroke-dasharray="8 8"/>
    <line x1="680" y1="345" x2="1200" y2="345" stroke="#C1C7D0"/><line x1="680" y1="170" x2="680" y2="345" stroke="#C1C7D0"/>
    <rect x="36" y="390" width="1208" height="250" rx="8" fill="#FFFFFF"/><text x="60" y="428" font-size="20" font-weight="700" fill="#172B4D">Sprint-wise Performance Matrix</text>
    <g font-size="16"><text x="72" y="474" font-weight="700" fill="#5E6C84">Sprint</text><text x="250" y="474" font-weight="700" fill="#5E6C84">Total Tasks</text><text x="430" y="474" font-weight="700" fill="#5E6C84">Completed</text><text x="620" y="474" font-weight="700" fill="#5E6C84">Completion Rate</text><text x="850" y="474" font-weight="700" fill="#5E6C84">Health Score</text></g>
    <g fill="#EBECF0"><rect x="60" y="492" width="1120" height="1"/><rect x="60" y="532" width="1120" height="1"/><rect x="60" y="572" width="1120" height="1"/></g>
    <g font-size="16" fill="#172B4D"><text x="72" y="518">Sprint 04 - 2025</text><text x="275" y="518">53</text><text x="465" y="518">39</text><text x="655" y="518">73.6%</text><text x="875" y="518">82.4</text><text x="72" y="558">Sprint 08 - 2025</text><text x="275" y="558">49</text><text x="465" y="558">25</text><text x="655" y="558">51.0%</text><text x="875" y="558">68.1</text><text x="72" y="598">Sprint 12 - 2025</text><text x="275" y="598">57</text><text x="465" y="598">11</text><text x="655" y="598">19.3%</text><text x="875" y="598">45.7</text></g>
  </g>
</svg>
