<svg xmlns="http://www.w3.org/2000/svg" width="1280" height="720" viewBox="0 0 1280 720">
  <rect width="1280" height="720" fill="#F4F5F7"/><rect width="1280" height="76" fill="#172B4D"/>
  <text x="36" y="48" font-family="Segoe UI, Arial" font-size="30" font-weight="700" fill="#FFFFFF">Team Performance</text>
  <text x="960" y="46" font-family="Segoe UI, Arial" font-size="18" fill="#B3D4FF">Resource Utilization | Workload</text>
  <g font-family="Segoe UI, Arial">
    <rect x="36" y="104" width="570" height="270" rx="8" fill="#FFFFFF"/><text x="60" y="142" font-size="20" font-weight="700" fill="#172B4D">Team Member Workload</text>
    <g fill="#0052CC"><rect x="220" y="170" width="285" height="22"/><rect x="220" y="205" width="245" height="22"/><rect x="220" y="240" width="220" height="22"/><rect x="220" y="275" width="190" height="22"/><rect x="220" y="310" width="170" height="22"/></g>
    <g font-size="15" fill="#172B4D"><text x="70" y="187">Aarav Mehta</text><text x="70" y="222">Meera Nair</text><text x="70" y="257">Sara Thomas</text><text x="70" y="292">Dev Patel</text><text x="70" y="327">Isha Sharma</text></g>
    <rect x="638" y="104" width="606" height="270" rx="8" fill="#FFFFFF"/><text x="662" y="142" font-size="20" font-weight="700" fill="#172B4D">Estimated vs Actual Hours</text>
    <line x1="690" y1="324" x2="1190" y2="324" stroke="#C1C7D0"/>
    <g fill="#00B8D9"><rect x="720" y="215" width="26" height="109"/><rect x="810" y="185" width="26" height="139"/><rect x="900" y="205" width="26" height="119"/><rect x="990" y="175" width="26" height="149"/><rect x="1080" y="230" width="26" height="94"/></g>
    <g fill="#FFAB00"><rect x="752" y="198" width="26" height="126"/><rect x="842" y="170" width="26" height="154"/><rect x="932" y="217" width="26" height="107"/><rect x="1022" y="158" width="26" height="166"/><rect x="1112" y="220" width="26" height="104"/></g>
    <rect x="36" y="410" width="1208" height="230" rx="8" fill="#FFFFFF"/><text x="60" y="448" font-size="20" font-weight="700" fill="#172B4D">Productivity Scorecard</text>
    <g font-size="16"><text x="80" y="494" font-weight="700" fill="#5E6C84">Team Member</text><text x="320" y="494" font-weight="700" fill="#5E6C84">Completed</text><text x="520" y="494" font-weight="700" fill="#5E6C84">Cycle Time</text><text x="720" y="494" font-weight="700" fill="#5E6C84">Utilization</text><text x="940" y="494" font-weight="700" fill="#5E6C84">Productivity Score</text></g>
    <g fill="#EBECF0"><rect x="70" y="512" width="1120" height="1"/><rect x="70" y="552" width="1120" height="1"/><rect x="70" y="592" width="1120" height="1"/></g>
    <g font-size="16" fill="#172B4D"><text x="80" y="538">Aarav Mehta</text><text x="350" y="538">31</text><text x="545" y="538">6.8d</text><text x="750" y="538">91%</text><text x="990" y="538">84.5</text><text x="80" y="578">Meera Nair</text><text x="350" y="578">28</text><text x="545" y="578">7.1d</text><text x="750" y="578">86%</text><text x="990" y="578">80.7</text><text x="80" y="618">Sara Thomas</text><text x="350" y="618">25</text><text x="545" y="618">7.5d</text><text x="750" y="618">88%</text><text x="990" y="618">78.9</text></g>
  </g>
</svg>
